<?xml version="1.0" standalone="no"?>
<!DOCTYPE svg PUBLIC "-//W3C//DTD SVG 1.1//EN" "http://www.w3.org/Graphics/SVG/1.1/DTD/svg11.dtd" >
<svg xmlns="http://www.w3.org/2000/svg" xmlns:xlink="http://www.w3.org/1999/xlink" version="1.1">
<metadata></metadata>
<defs>
<font id="avantgardegothiccbold_italic" horiz-adv-x="560" >
<font-face units-per-em="1000" ascent="785" descent="-215" />
<missing-glyph horiz-adv-x="233" />
<glyph horiz-adv-x="0" />
<glyph horiz-adv-x="333" />
<glyph unicode=" "  horiz-adv-x="233" />
<glyph unicode="&#x09;" horiz-adv-x="233" />
<glyph unicode="&#xa0;" horiz-adv-x="233" />
<glyph unicode="!" horiz-adv-x="280" d="M60 188l107 552h133l-107 -552h-133zM23 0l25 127h133l-25 -127h-133z" />
<glyph unicode="&#x22;" horiz-adv-x="360" d="M125 514l44 226h75l-44 -226h-75zM260 514l44 226h75l-44 -226h-75z" />
<glyph unicode="#" d="M346 0h-90l48 233h-86l-48 -233h-90l48 233h-114l20 98h114l19 92h-114l19 98h114l45 219h90l-45 -219h86l45 219h90l-45 -219h114l-19 -98h-114l-19 -92h114l-20 -98h-114zM324 331l19 92h-86l-19 -92h86z" />
<glyph unicode="$" d="M154 -85l27 137q-59 14 -93 58t-34 107q0 19 3 37h133q-3 -10 -3 -22q0 -31 20 -53q21 -21 59 -21q43 0 68 21q27 24 27 66q0 36 -21 61t-76 56q-28 16 -42 25t-37 29.5t-33.5 48.5t-10.5 64q0 85 49 138t122 57l25 131h125l-26 -135q40 -9 66 -40q30 -38 30 -102 q0 -10 -2 -32h-126q2 6 2 19q0 24 -18 38q-15 11 -43 11q-31 0 -49 -16q-22 -19 -22 -51q0 -29 17 -49t66 -48q28 -16 44.5 -27.5t42 -35.5t38 -58t12.5 -77q0 -94 -64 -152q-51 -47 -125 -52l-26 -133h-125z" />
<glyph unicode="%" horiz-adv-x="860" d="M177 0l450 740h102l-450 -740h-102zM275 753q71 0 116 -45q45 -44 45 -111q0 -93 -55 -148q-54 -56 -144 -56q-71 0 -116 45q-45 44 -45 111q0 93 55 148q54 56 144 56zM251 499q33 0 54 23t21 58q0 31 -18 49t-47 18q-25 0 -44.5 -14t-26.5 -39q-4 -12 -4 -28 q0 -31 18 -49t47 -18zM669 342q71 0 116 -45q45 -44 45 -111q0 -93 -55 -148q-54 -56 -144 -56q-71 0 -116 45q-45 44 -45 111q0 93 55 148q54 56 144 56zM645 88q33 0 54 23t21 58q0 31 -18 49t-47 18q-25 0 -44.5 -14t-26.5 -39q-4 -12 -4 -28q0 -31 18 -49t47 -18z" />
<glyph unicode="&#x26;" horiz-adv-x="680" d="M528 436h138l-148 -228l105 -146l-106 -80l-80 115l-17 -21q-77 -94 -194 -94q-95 0 -149.5 58t-54.5 145q0 52 18 95t48 71.5t59 46.5t60 30q-49 69 -49 132q0 78 53 135.5t145 57.5q82 0 129.5 -44.5t47.5 -116.5q0 -75 -44.5 -125.5t-99.5 -75.5l56 -80zM272 332 l-29 -15q-88 -46 -88 -126q0 -40 23.5 -61.5t61.5 -21.5q59 0 113 69l15 19zM322 491l8 -10q79 33 79 96q0 58 -52 58q-28 0 -47 -17.5t-19 -49.5q0 -39 31 -77z" />
<glyph unicode="'" horiz-adv-x="220" d="M124 514l44 226h76l-44 -226h-76z" />
<glyph unicode="(" horiz-adv-x="380" d="M442 740l-27 -145q-87 -52 -141 -144q-62 -108 -62 -222q0 -78 25 -133q22 -50 64 -85l-27 -139q-90 44 -144 133q-55 90 -55 215q0 133 66 254q48 89 125.5 158.5t175.5 107.5z" />
<glyph unicode=")" horiz-adv-x="380" d="M-44 -128l27 145q87 52 141 144q62 108 62 222q0 78 -25 133q-22 50 -64 85l27 139q90 -44 144 -133q55 -90 55 -215q0 -133 -66 -254q-48 -89 -125.5 -158.5t-175.5 -107.5z" />
<glyph unicode="*" horiz-adv-x="440" d="M445 640l-13 -70l-101 6l40 -84l-63 -36l-29 92l-62 -92l-57 30l72 91l-101 -7l13 69l99 -6l-37 89l67 30l28 -90l63 91l51 -35l-71 -85z" />
<glyph unicode="+" horiz-adv-x="600" d="M252 379v191h116v-191h194v-116h-194v-198h-116v198h-194v116h194z" />
<glyph unicode="," horiz-adv-x="280" d="M23 0l26 133h133l-25 -128q-5 -27 -9 -41t-16 -35t-31 -35q-37 -29 -103 -34l13 67q25 0 44.5 15t23.5 41l3 17h-59z" />
<glyph unicode="-" horiz-adv-x="420" d="M94 377h278l-23 -118h-278z" />
<glyph unicode="." horiz-adv-x="280" d="M23 0l26 133h133l-26 -133h-133z" />
<glyph unicode="/" horiz-adv-x="460" d="M-60 -128l492 868h94l-492 -868h-94z" />
<glyph unicode="0" d="M30 248l53 269q7 35 16.5 63t31 62.5t51.5 57t79.5 38t112.5 15.5q97 -1 150.5 -56t53.5 -156q0 -31 -5 -54l-53 -269q-7 -35 -16.5 -63t-31 -62.5t-51.5 -57t-79.5 -38t-112.5 -15.5q-97 1 -150.5 56t-53.5 156q0 32 5 54zM216 517l-53 -269q-5 -25 -5 -45 q0 -8 0.5 -15.5t6 -23.5t15 -27.5t30.5 -20t49 -8.5q106 1 128 110l53 269q5 25 5 45q0 44 -25.5 69.5t-73.5 25.5q-108 0 -130 -110z" />
<glyph unicode="1" d="M263 0l108 554l-195 -202l-88 83l299 305h153l-144 -740h-133z" />
<glyph unicode="2" d="M-8 0l24 126l323 264q35 29 51 44t32.5 44t16.5 60q0 41 -26 65q-25 24 -72 24q-65 0 -101 -52q-27 -39 -29 -91h-133q6 96 60 166q79 103 215 103q113 0 168 -57q51 -55 51 -143q0 -53 -18.5 -97.5t-46.5 -75.5t-74 -70l-223 -184h284l-24 -126h-478z" />
<glyph unicode="3" d="M230 560h-133q9 80 67 134q64 59 169 59q89 0 141 -45q54 -47 54 -123q0 -59 -32.5 -105.5t-89.5 -65.5q57 -12 84 -56.5t27 -107.5q0 -115 -74 -189q-79 -79 -216 -79q-108 0 -167 63q-54 58 -54 135q0 26 1 39h133q-1 -7 -1 -21q0 -35 29 -64q27 -26 77 -26 q67 0 105 43q34 38 34 89q0 54 -35 82q-28 22 -91 22h-23l24 126h29q56 0 84 29q23 25 23 61q0 31 -21 50q-19 17 -53 17q-40 0 -66 -22q-22 -19 -25 -45z" />
<glyph unicode="4" d="M289 0l21 110h-320l27 139l397 491h152l-98 -504h78l-25 -126h-78l-21 -110h-133zM335 236l60 308l-245 -308h185z" />
<glyph unicode="5" d="M49 351l149 389h363l-33 -126h-245l-56 -144q44 24 98 24q92 0 143 -57q57 -61 57 -172q0 -112 -63 -188q-79 -95 -219 -95q-111 0 -175 63q-61 61 -61 143q0 21 1 31h133q-1 -5 -1 -14q0 -38 28 -68q29 -29 77 -29q63 0 102 34q45 40 45 100q0 62 -27 95q-32 39 -88 39 q-78 0 -116 -58z" />
<glyph unicode="6" d="M361 740h157l-222 -254q16 3 37 3q86 0 144 -59q61 -62 61 -164q0 -140 -91 -218q-76 -66 -187 -66q-109 0 -173 58q-71 64 -71 172q0 114 88 220zM287 371q-64 0 -101 -42t-37 -107q0 -54 34 -85q32 -29 86 -29q61 0 101 44q35 40 35 101q0 56 -32 88q-30 30 -86 30z " />
<glyph unicode="7" d="M35 0l390 614h-301l25 126h445l-25 -126l-378 -614h-156z" />
<glyph unicode="8" d="M193 417q-66 43 -66 133q0 91 73 152q62 51 156 51q96 0 147 -57q40 -45 40 -117q0 -130 -121 -170q33 -11 55.5 -34t31 -50.5t11.5 -46t3 -36.5q0 -117 -77 -190q-75 -70 -193 -70q-105 0 -166 56q-67 63 -67 157q0 84 47.5 146.5t125.5 75.5zM285 347q-57 0 -92 -33 q-40 -38 -40 -94q0 -49 27 -80q28 -32 76 -32q57 0 92 33q42 37 42 94q0 49 -24 78q-28 34 -81 34zM344 635q-37 0 -62 -24q-28 -26 -28 -68q0 -33 17 -55q19 -23 54 -23q39 0 65 24q29 28 29 67q0 36 -18 56q-20 23 -57 23z" />
<glyph unicode="9" d="M239 0h-157l222 253q-16 -3 -37 -3q-84 0 -142 58q-63 63 -63 163q0 138 91 216q76 66 193 66q108 0 171 -57q67 -60 67 -167q0 -117 -88 -222zM311 368q65 0 104 43q36 38 36 96q0 62 -34 92q-31 28 -84 28q-63 0 -103 -43q-35 -39 -35 -100q0 -56 32 -87q30 -29 84 -29 z" />
<glyph unicode=":" horiz-adv-x="280" d="M23 0l26 133h133l-26 -133h-133zM95 369l26 133h133l-26 -133h-133z" />
<glyph unicode=";" horiz-adv-x="280" d="M23 0l26 133h133l-25 -128q-5 -27 -9 -41t-16 -35t-31 -35q-37 -29 -103 -34l13 67q25 0 44.5 15t23.5 41l3 17h-59zM95 369l26 133h133l-26 -133h-133z" />
<glyph unicode="&#x3c;" horiz-adv-x="600" d="M183 316l362 -163v-111l-509 225v98l509 225v-111z" />
<glyph unicode="=" horiz-adv-x="600" d="M562 473v-115h-504v115h504zM562 278v-115h-504v115h504z" />
<glyph unicode="&#x3e;" horiz-adv-x="600" d="M418 316l-362 163v111l509 -225v-98l-509 -225v111z" />
<glyph unicode="?" d="M222 522h-133q4 92 66 156q71 75 191 75q96 0 152 -56q50 -50 50 -135q0 -24 -3.5 -45t-13 -40t-16 -31t-24.5 -29.5t-24.5 -23.5t-30.5 -25.5t-29 -23.5q-83 -69 -93 -156h-133q6 72 35.5 122t78.5 92q15 13 45 36t41.5 34t22.5 32.5t11 47.5q0 31 -19 52q-21 23 -62 23 q-54 0 -83 -32q-27 -32 -29 -73zM144 0l25 127h133l-25 -127h-133z" />
<glyph unicode="@" horiz-adv-x="740" d="M610 555l-54 -278q-3 -9 -3 -25q0 -15 20 -15q42 0 75 55q31 51 31 123q0 69 -24.5 122t-65.5 84t-89.5 46.5t-100.5 15.5q-135 0 -222.5 -89.5t-87.5 -226.5q0 -142 92 -228.5t227 -86.5q84 0 166 44l36 -56q-91 -58 -210 -58q-170 0 -278.5 109t-108.5 276 q0 168 108.5 277t280.5 109q165 0 259 -93t94 -234q0 -103 -48 -176q-29 -43 -77.5 -72t-94.5 -29q-57 0 -80 48q-48 -48 -118 -48q-69 0 -117.5 49t-48.5 131q0 101 59 167q60 67 149 67q84 0 124 -60l11 52h96zM367 256q50 0 79 33q29 34 29 80q0 35 -21.5 61t-61.5 26 t-67 -29q-32 -32 -32 -82q0 -39 18.5 -64t55.5 -25z" />
<glyph unicode="A" horiz-adv-x="740" d="M-43 0l432 740h147l147 -740h-147l-36 196h-280l-107 -196h-156zM287 324h194l-48 264z" />
<glyph unicode="B" horiz-adv-x="580" d="M21 0l144 740h201q97 0 146 -43q50 -43 50 -119q0 -65 -33 -113t-92 -69q99 -31 99 -149q0 -119 -86 -190q-68 -57 -177 -57h-252zM183 128h102q45 0 77 27q37 32 37 86q0 36 -19 57q-23 26 -69 26h-90zM246 452h77q46 0 72 22q30 25 30 68q0 34 -20 52q-19 18 -62 18 h-66z" />
<glyph unicode="C" horiz-adv-x="780" d="M795 528h-156q-39 97 -173 97t-208 -91q-65 -78 -65 -202q0 -100 57 -160q58 -62 153 -62q127 0 197 91h159q-51 -103 -144 -161t-219 -58q-155 0 -250 101q-90 97 -90 244q0 187 122 311q115 115 300 115q119 0 202.5 -56.5t114.5 -168.5z" />
<glyph unicode="D" horiz-adv-x="700" d="M21 0l144 740h214q153 0 230 -80q77 -79 77 -233q0 -212 -130 -330q-106 -97 -278 -97h-257zM184 133h106q113 0 178 63q8 7 18 20.5t26 41t26.5 71t10.5 93.5q0 97 -51 144q-20 19 -47.5 28.5t-46.5 11t-49 1.5h-79z" />
<glyph unicode="E" horiz-adv-x="520" d="M21 0l144 740h392l-25 -128h-255l-34 -176h244l-25 -128h-244l-35 -180h255l-25 -128h-392z" />
<glyph unicode="F" horiz-adv-x="480" d="M21 0l144 740h371l-25 -128h-234l-34 -176h223l-25 -128h-223l-60 -308h-137z" />
<glyph unicode="G" horiz-adv-x="840" d="M809 522h-156q-41 103 -181 103q-134 0 -212 -91q-67 -77 -67 -200q0 -100 59 -162q60 -62 158 -62q100 0 163 51q45 35 64 92h-297l24 124h462q-7 -84 -40 -156t-81 -122q-113 -117 -299 -117q-162 0 -258 101q-92 96 -92 253q0 180 124 302q116 115 305 115 q121 0 207 -58.5t117 -172.5z" />
<glyph unicode="H" horiz-adv-x="680" d="M21 0l144 740h137l-58 -297h263l58 297h137l-144 -740h-137l61 315h-263l-61 -315h-137z" />
<glyph unicode="I" horiz-adv-x="280" d="M21 0l144 740h137l-144 -740h-137z" />
<glyph unicode="J" horiz-adv-x="480" d="M502 740l-109 -562q-38 -196 -231 -196q-86 0 -130 51.5t-44 128.5q0 10 2 28h137q-2 -10 -2 -16q0 -28 14 -46t40 -18q64 0 78 71l108 559h137z" />
<glyph unicode="K" horiz-adv-x="620" d="M21 0l144 740h137l-64 -325l289 325h164l-341 -370l202 -370h-160l-171 324l-63 -324h-137z" />
<glyph unicode="L" horiz-adv-x="440" d="M21 0l144 740h137l-119 -612h224l-25 -128h-361z" />
<glyph unicode="M" horiz-adv-x="900" d="M21 0l144 740h196l74 -566l291 566h196l-144 -740h-137l108 554l-285 -554h-129l-69 554l-108 -554h-137z" />
<glyph unicode="N" horiz-adv-x="740" d="M21 0l144 740h170l183 -550l107 550h137l-144 -740h-170l-183 550l-107 -550h-137z" />
<glyph unicode="O" horiz-adv-x="840" d="M482 753q159 0 254 -101q90 -95 90 -245q0 -184 -124 -310q-115 -115 -302 -115q-159 0 -254 101q-90 95 -90 245q0 184 124 310q115 115 302 115zM411 110q135 0 211 91q67 79 67 202q0 99 -57 160q-57 62 -161 62q-135 0 -211 -91q-67 -79 -67 -202q0 -99 57 -160 q57 -62 161 -62z" />
<glyph unicode="P" d="M21 0l144 740h217q108 0 161 -55q50 -52 50 -146q0 -128 -90 -202q-70 -57 -180 -57h-111l-54 -280h-137zM277 612l-39 -204h102q48 0 79 26q37 32 37 87q0 42 -21 65q-24 26 -70 26h-88z" />
<glyph unicode="Q" horiz-adv-x="840" d="M803 105l-23 -123q-107 -10 -170 46q-78 -46 -210 -46q-160 0 -254 101q-90 95 -90 245q0 184 124 310q115 115 302 115q159 0 254 -101q90 -95 90 -245q0 -173 -107 -291q24 -13 54 -13q20 0 30 2zM194 334q55 13 105 13q190 0 320 -149q35 39 52.5 95t17.5 110 q0 99 -57 160q-57 62 -161 62q-132 0 -209 -86q-30 -34 -49.5 -89t-19.5 -105q0 -2 0.5 -5.5t0.5 -5.5zM216 225q14 -32 37 -55.5t44 -34.5t47 -17t38 -7t25 -1q55 0 104 17q-94 109 -227 109q-36 0 -68 -11z" />
<glyph unicode="R" horiz-adv-x="580" d="M20 0l144 740h230q116 0 166 -57.5t50 -152.5q0 -127 -95 -200q-67 -52 -153 -53l154 -277h-150l-152 285h-2l-55 -285h-137zM277 612l-43 -220h106q61 0 96 32q38 35 38 93q0 95 -92 95h-105z" />
<glyph unicode="S" horiz-adv-x="520" d="M12 212h137q-2 -8 -2 -23q0 -31 20 -54q23 -25 63 -25q49 0 77 29q24 25 24 60q0 52 -51 98q-13 12 -57 44q-64 48 -90 87.5t-26 97.5q0 107 72 172q63 55 163 55q96 0 143 -57q39 -47 39 -122q0 -20 -3 -40h-137q3 10 3 20q0 29 -15 49q-16 22 -50 22q-31 0 -52 -17 q-26 -21 -26 -63q0 -34 21.5 -57.5t83.5 -66.5q26 -18 42.5 -32t38.5 -39.5t33 -59.5t11 -75q0 -98 -63 -163q-70 -70 -191 -70q-96 0 -151 53q-59 57 -59 144q0 11 2 33z" />
<glyph unicode="T" horiz-adv-x="420" d="M92 0l119 612h-137l25 128h411l-25 -128h-137l-119 -612h-137z" />
<glyph unicode="U" horiz-adv-x="640" d="M164 740h137l-93 -477q-7 -35 -7 -59q0 -94 91 -94q53 0 90 32q16 14 26 33.5t13 31.5t7 36l97 497h137l-98 -502q-7 -36 -11.5 -53.5t-15 -48.5t-28 -54.5t-42.5 -43.5q-71 -56 -192 -56q-103 0 -157.5 60t-54.5 147q0 35 8 77z" />
<glyph unicode="V" horiz-adv-x="700" d="M223 0l-122 740h152l87 -575l291 575h156l-394 -740h-170z" />
<glyph unicode="W" horiz-adv-x="900" d="M139 0l-41 740h136l24 -518l220 518h128l23 -518l221 518h140l-318 -740h-150l-20 509l-213 -509h-150z" />
<glyph unicode="X" horiz-adv-x="680" d="M-45 0l327 370l-183 370h156l127 -267l224 267h164l-328 -370l184 -370h-156l-128 266l-223 -266h-164z" />
<glyph unicode="Y" horiz-adv-x="620" d="M192 0l53 273l-152 467h150l96 -329l221 329h156l-334 -467l-53 -273h-137z" />
<glyph unicode="Z" horiz-adv-x="500" d="M-32 0l26 133l382 479h-273l25 128h430l-26 -133l-378 -479h301l-25 -128h-462z" />
<glyph unicode="[" horiz-adv-x="320" d="M241 15l-28 -143q-72 17 -116 69q-51 58 -51 149q0 39 8 84l51 264q10 50 18.5 80.5t32 72.5t59.5 74q69 61 167 75l-29 -145q-44 -12 -70 -45q-26 -32 -41 -112l-51 -263q-8 -40 -8 -59q0 -38 13 -63q15 -29 45 -38z" />
<glyph unicode="\" horiz-adv-x="640" d="M351 0l-171 740h97l171 -740h-97z" />
<glyph unicode="]" horiz-adv-x="320" d="M95 597l28 143q72 -17 116 -69q51 -58 51 -149q0 -39 -8 -84l-51 -264q-10 -50 -18.5 -80.5t-32 -72.5t-59.5 -74q-69 -61 -167 -75l29 145q44 12 70 45q26 32 41 112l51 263q8 40 8 59q0 38 -13 63q-15 29 -45 38z" />
<glyph unicode="^" horiz-adv-x="600" d="M300 594l-156 -414h-134l230 560h120l230 -560h-134z" />
<glyph unicode="_" horiz-adv-x="500" d="M500 -138h-500v90h500v-90z" />
<glyph unicode="`" horiz-adv-x="420" d="M232 840l211 -135l-63 -92l-217 125z" />
<glyph unicode="a" horiz-adv-x="660" d="M665 554l-108 -554h-122l6 33h-2q-50 -51 -150 -51q-102 0 -173 62q-86 76 -86 207q0 150 97 241q86 80 212 80q133 0 189 -86h2l13 68h122zM339 454q-84 0 -130 -58.5t-46 -139.5q0 -71 38.5 -113.5t104.5 -42.5q78 0 128 53.5t50 140.5q0 74 -39 117t-106 43z" />
<glyph unicode="b" horiz-adv-x="660" d="M148 740h133l-42 -217h2q58 49 146 49q95 0 165 -62q86 -76 86 -207q0 -150 -97 -241q-86 -80 -216 -80q-128 0 -183 86h-2l-14 -68h-122zM362 454q-77 0 -127.5 -54t-50.5 -144q0 -70 39 -113t108 -43q82 0 128 58t46 138q0 73 -39 115.5t-104 42.5z" />
<glyph unicode="c" horiz-adv-x="640" d="M447 180h144q-29 -88 -103 -143t-189 -55q-123 0 -195 71q-74 73 -74 195q0 145 94 239q86 85 229 85q66 0 116.5 -19.5t79 -51.5t44 -64t21.5 -67h-146q-12 40 -45.5 62t-78.5 22q-82 0 -133 -56q-48 -54 -48 -140q0 -74 40 -118q38 -40 103 -40q105 0 141 80z" />
<glyph unicode="d" horiz-adv-x="660" d="M701 740l-144 -740h-122l6 33h-2q-51 -51 -146 -51q-107 0 -177 62q-86 76 -86 205q0 150 97 243q84 80 214 80q122 0 178 -75h2l47 243h133zM339 454q-76 0 -126 -53.5t-50 -140.5q0 -74 39 -117t106 -43q84 0 130 58.5t46 139.5q0 71 -39 113.5t-106 42.5z" />
<glyph unicode="e" horiz-adv-x="640" d="M609 218h-439q3 -46 40 -81q40 -37 104 -37q43 0 79 19q29 16 46 41h150q-33 -73 -97 -121q-79 -57 -199 -57q-117 0 -189 74q-74 79 -74 190q0 149 96 242q87 84 227 84q127 0 196 -73t69 -197q0 -42 -9 -84zM182 336h303q-6 53 -41 85q-36 33 -95 33q-68 0 -113 -36 q-39 -31 -54 -82z" />
<glyph unicode="f" horiz-adv-x="280" d="M7 0l85 436h-47l23 118h47l1 6q33 191 229 191h25l-23 -118h-17q-32 0 -54 -20.5t-27 -52.5l-1 -6h84l-23 -118h-84l-85 -436h-133z" />
<glyph unicode="g" horiz-adv-x="660" d="M665 554l-100 -510q-24 -118 -93 -181q-87 -78 -230 -78q-112 0 -178.5 59.5t-78.5 155.5h153q7 -30 24 -50t39 -27.5t35 -9.5t25 -2q84 0 132 42q36 32 49 86h-2q-53 -45 -147 -45q-104 0 -177 61q-86 73 -86 202q0 147 97 236q84 79 214 79t187 -86h2l13 68h122z M337 454q-74 0 -124 -51.5t-50 -137.5q0 -71 38.5 -112t104.5 -41q78 0 128 51.5t50 136.5q0 71 -39.5 112.5t-107.5 41.5z" />
<glyph unicode="h" horiz-adv-x="600" d="M4 0l144 740h133l-43 -219q57 51 149 51q81 0 127 -45q50 -50 50 -144q0 -35 -8 -77l-59 -306h-133l61 314q5 28 5 50q0 42 -21.5 66t-64.5 24q-60 0 -100 -42q-34 -35 -48 -108l-59 -304h-133z" />
<glyph unicode="i" horiz-adv-x="240" d="M4 0l108 554h133l-108 -554h-133zM124 618l24 122h133l-24 -122h-133z" />
<glyph unicode="j" horiz-adv-x="260" d="M265 554l-111 -566q-21 -106 -107 -149q-62 -31 -164 -24l23 118q51 -5 81 14q30 20 38 61l107 546h133zM144 618l24 122h133l-24 -122h-133z" />
<glyph unicode="k" horiz-adv-x="580" d="M4 0l144 740h133l-87 -447l228 261h158l-253 -279l178 -275h-158l-160 259l-50 -259h-133z" />
<glyph unicode="l" horiz-adv-x="240" d="M4 0l144 740h133l-144 -740h-133z" />
<glyph unicode="m" horiz-adv-x="940" d="M4 0l107 554h122l-9 -43h2q60 61 149 61q63 0 105 -31q27 -21 43 -51q29 33 65 52q56 30 126 30q87 0 139 -51q51 -51 51 -149q0 -29 -9 -76l-58 -296h-133l61 314q5 25 5 45q0 11 -2 22.5t-8.5 30.5t-24.5 30.5t-45 11.5q-60 0 -98 -43q-31 -36 -46 -107l-59 -304h-133 l61 314q5 28 5 51q0 30 -10 50t-26 27.5t-25.5 9.5t-18.5 2q-60 0 -98 -43q-31 -36 -46 -107l-59 -304h-133z" />
<glyph unicode="n" horiz-adv-x="600" d="M4 0l108 554h122l-9 -43h2q58 61 162 61q79 0 125 -45q50 -50 50 -142q0 -36 -8 -79l-59 -306h-133l61 314q5 28 5 50q0 30 -9.5 49.5t-25 27.5t-26.5 10.5t-23 2.5q-63 0 -102 -42q-34 -35 -48 -108l-59 -304h-133z" />
<glyph unicode="o" horiz-adv-x="640" d="M347 572q126 0 198 -72q73 -73 73 -192q0 -147 -94 -241q-85 -85 -221 -85q-126 0 -199 72q-74 73 -74 194q0 147 94 239q86 85 223 85zM340 454q-78 0 -128 -55q-49 -54 -49 -143q0 -66 34 -108q38 -48 111 -48q78 0 128 55q49 54 49 143q0 66 -34 108q-38 48 -111 48z " />
<glyph unicode="p" horiz-adv-x="660" d="M-32 -185l144 739h122l-6 -33h2q51 51 149 51q104 0 173 -62q86 -76 86 -207q0 -150 -97 -241q-86 -80 -216 -80q-121 0 -175 75h-2l-47 -242h-133zM359 454q-75 0 -125 -53.5t-50 -142.5q0 -72 39 -115t105 -43q77 0 127 53.5t50 139.5q0 74 -39.5 117.5t-106.5 43.5z " />
<glyph unicode="q" horiz-adv-x="660" d="M665 554l-144 -739h-133l42 216h-2q-58 -49 -147 -49q-96 0 -165 61q-86 78 -86 208q0 150 97 241q84 80 214 80t187 -86h2l13 68h122zM339 454q-76 0 -126 -54t-50 -142q0 -72 39 -115t105 -43q76 0 126.5 54t50.5 144q0 71 -39 113.5t-106 42.5z" />
<glyph unicode="r" horiz-adv-x="320" d="M4 0l108 554h122l-10 -50h2q55 73 151 68l-25 -129q-69 4 -116 -50q-29 -34 -39 -84l-60 -309h-133z" />
<glyph unicode="s" horiz-adv-x="440" d="M7 174h133q-1 -4 -1 -12q0 -26 15.5 -44t45.5 -18q29 0 45 17.5t16 42.5q0 32 -35 57q-5 4 -44 27q-48 28 -75 61.5t-27 91.5q0 73 47 122q51 53 144 53q78 0 119 -41q40 -40 40 -114q0 -10 -1 -15h-133q1 4 1 13q0 17 -10 28t-29 11q-21 0 -33 -12.5t-12 -32.5 q0 -19 10 -34t21.5 -23t35.5 -21q53 -28 83.5 -64t30.5 -99q0 -88 -58 -138q-54 -48 -147 -48q-89 0 -137 44q-46 42 -46 121q0 18 1 27z" />
<glyph unicode="t" horiz-adv-x="300" d="M24 0l85 436h-65l23 118h65l36 186h133l-36 -186h80l-23 -118h-80l-85 -436h-133z" />
<glyph unicode="u" horiz-adv-x="600" d="M604 554l-108 -554h-122l9 43h-2q-58 -61 -162 -61q-79 0 -125 45q-50 49 -50 138q0 38 8 83l59 306h133l-61 -313q-6 -27 -6 -54q0 -11 2 -22t9 -27.5t26 -27t47 -10.5q62 0 103 42q34 35 48 108l59 304h133z" />
<glyph unicode="v" d="M175 0l-116 554h143l67 -344l192 344h150l-332 -554h-104z" />
<glyph unicode="w" horiz-adv-x="800" d="M137 0l-69 554h141l35 -314l154 314h110l44 -314l148 314h143l-266 -554h-115l-45 354l-165 -354h-115z" />
<glyph unicode="x" d="M-46 0l255 295l-132 259h150l77 -169l136 169h157l-235 -275l144 -279h-155l-85 189l-153 -189h-159z" />
<glyph unicode="y" horiz-adv-x="580" d="M478 554h148l-457 -739h-148l148 237l-105 502h143l69 -355z" />
<glyph unicode="z" horiz-adv-x="460" d="M-30 0l23 118l303 318h-223l23 118h387l-23 -118l-303 -318h258l-23 -118h-422z" />
<glyph unicode="{" horiz-adv-x="340" d="M37 261l17 90q44 1 72 35q22 26 32 74l29 146q6 28 9 40.5t16 33t34 34.5q38 26 96 26h56l-18 -90h-10q-33 0 -56 -18q-23 -19 -33 -71l-25 -127q-13 -66 -44 -95q-28 -26 -70 -32l-1 -2q33 -3 52 -25t19 -53q0 -21 -5 -49l-25 -127q-5 -33 -5 -37q0 -16 2.5 -25.5 t14.5 -18t35 -8.5h18l-18 -90h-56q-59 0 -86 26q-23 22 -23 59q0 15 6 49l29 146q4 17 4 37q0 39 -27 59q-19 13 -39 13z" />
<glyph unicode="|" horiz-adv-x="600" d="M241 0v740h119v-740h-119z" />
<glyph unicode="}" horiz-adv-x="340" d="M322 351l-17 -90q-13 0 -25.5 -4t-29 -14.5t-29.5 -33.5t-20 -57l-29 -146q-4 -20 -7 -31t-14 -33.5t-26 -35.5t-43 -23.5t-65 -10.5h-56l18 90h10q25 0 43 8.5t27 25t12.5 27.5t6.5 28l25 127q6 32 15 54t34.5 45t64.5 28l1 2q-33 3 -52 25t-19 53q0 21 5 49l25 127 q5 33 5 37q0 16 -2.5 25.5t-14.5 18t-35 8.5h-18l18 90h56q109 0 109 -85q0 -15 -6 -49l-29 -146q-4 -17 -4 -37q0 -35 19.5 -53t46.5 -19z" />
<glyph unicode="~" horiz-adv-x="600" d="M498 421l64 -73q-31 -57 -65 -87t-79 -30q-30 0 -73 15q-16 6 -46 20q-67 31 -88 31q-23 0 -47.5 -20t-41.5 -62l-64 74q59 124 153 124q39 0 133 -44q48 -22 69 -22q28 0 47.5 20t37.5 54z" />
<glyph unicode="&#xa7;" d="M561 580h-125q1 4 1 13q0 57 -70 57q-45 0 -62.5 -18t-17.5 -41q0 -18 9 -32t18.5 -21t25.5 -16l90 -50q52 -29 81 -62.5t29 -84.5q0 -104 -109 -160q32 -39 32 -94q0 -74 -46 -128q-71 -84 -202 -84q-84 0 -140.5 45t-56.5 130q0 18 3 36h132q-3 -12 -3 -24 q0 -24 10.5 -39.5t27 -21t25.5 -7t18 -1.5q53 1 76 22.5t23 50.5q0 38 -50 67l-118 68q-107 62 -107 151q0 36 12.5 67t33 51.5t38 33t34.5 20.5q-19 32 -19 76q0 81 57 131q59 53 174 53q53 0 90.5 -15.5t55.5 -40.5t25.5 -49t7.5 -49q0 -18 -3 -34zM229 304l137 -78 q41 29 41 71q0 36 -49 64l-132 76q-37 -25 -37 -70q0 -39 40 -63z" />
<glyph unicode="&#xa9;" horiz-adv-x="740" d="M383 -18q-160 0 -273 113t-113 273q0 159 113 272t273 113q159 0 272 -113t113 -272q0 -160 -113 -273t-272 -113zM383 54q129 0 221 91.5t92 222.5q0 130 -92 221.5t-221 91.5q-130 0 -222 -92t-92 -221q0 -130 92 -222t222 -92zM589 463h-90q-37 54 -111 54 q-60 0 -99.5 -42.5t-39.5 -102.5q0 -61 40.5 -104t98.5 -43q71 0 107 50h92q-28 -58 -79 -92t-119 -34q-104 0 -162 69t-58 154q0 94 63 157.5t155 63.5q70 0 122.5 -34.5t79.5 -95.5z" />
<glyph unicode="&#xab;" horiz-adv-x="460" d="M151 136l-113 131l20 101l164 130l-24 -123l-78 -57l55 -59zM364 136l-113 131l20 101l164 130l-24 -123l-78 -57l55 -59z" />
<glyph unicode="&#xac;" horiz-adv-x="600" d="M444 182v173h-386v118h504v-291h-118z" />
<glyph unicode="&#xad;" horiz-adv-x="420" d="M94 377h278l-23 -118h-278z" />
<glyph unicode="&#xae;" horiz-adv-x="740" d="M383 -18q-160 0 -273 113t-113 273q0 159 113 272t273 113q159 0 272 -113t113 -272q0 -160 -113 -273t-272 -113zM383 54q129 0 221 91.5t92 222.5q0 130 -92 221.5t-221 91.5q-130 0 -222 -92t-92 -221q0 -130 92 -222t222 -92zM254 152v427h125q51 0 85.5 -14.5 t49.5 -38t20.5 -43t5.5 -39.5q0 -52 -32.5 -91.5t-83.5 -42.5l116 -158h-98l-107 158h-1v-158h-80zM334 503v-127h47q79 0 79 63q0 64 -79 64h-47z" />
<glyph unicode="&#xb0;" horiz-adv-x="400" d="M410 590q0 -62 -44 -106t-106 -44t-106 44t-44 106t44 106t106 44t106 -44t44 -106zM350 590q0 37 -26.5 63.5t-64.5 26.5q-37 0 -63 -26.5t-26 -63.5t26.5 -63.5t63.5 -26.5t63.5 26.5t26.5 63.5z" />
<glyph unicode="&#xb1;" horiz-adv-x="600" d="M252 433v137h116v-137h194v-116h-194v-143h-116v143h-194v116h194zM58 0v116h504v-116h-504z" />
<glyph unicode="&#xb5;" horiz-adv-x="576" d="M112 554h133l-53 -272q0 -2 -2.5 -13t-3 -15t-2 -14.5t-2 -15.5t-1 -15t0 -16t1.5 -14.5t3.5 -15t5.5 -13t8 -12.5q21 -26 60 -26q49 0 84 39q33 37 51 131l53 272h133l-108 -554h-122l11 59h-2q-45 -77 -124 -77q-67 0 -90 61l-45 -228h-133z" />
<glyph unicode="&#xb6;" horiz-adv-x="600" d="M167 -128l89 458q-72 2 -121 48.5t-49 122.5q0 115 87 182q74 57 195 57h253l-169 -868h-103l148 761h-82l-148 -761h-100z" />
<glyph unicode="&#xb7;" horiz-adv-x="250" d="M46 251l26 133h133l-26 -133h-133z" />
<glyph unicode="&#xbb;" horiz-adv-x="460" d="M261 136l24 123l80 59l-57 57l24 123l114 -130l-20 -101zM48 136l24 123l80 59l-57 57l24 123l114 -130l-20 -101z" />
<glyph unicode="&#x401;" horiz-adv-x="520" d="M21 0l144 740h392l-25 -128h-255l-34 -176h244l-25 -128h-244l-35 -180h255l-25 -128h-392zM226 920h137l-25 -126h-137zM432 920h137l-25 -126h-137z" />
<glyph unicode="&#x402;" horiz-adv-x="700" d="M95 0l119 612h-137l25 128h491l-25 -128h-217l-31 -157h134q109 0 161 -58q50 -54 50 -150q0 -125 -87 -192q-71 -55 -184 -55h-78l25 128h69q49 0 79 25q39 32 39 88q0 35 -20 59q-25 27 -75 27h-137l-64 -327h-137z" />
<glyph unicode="&#x403;" horiz-adv-x="440" d="M21 0l144 740h365l-25 -128h-228l-119 -612h-137zM241 879l263 101l37 -110l-261 -90z" />
<glyph unicode="&#x404;" horiz-adv-x="780" d="M795 528h-156q-39 97 -174 97q-121 0 -196 -77q-48 -50 -60 -112h361l-25 -128h-350q4 -81 55 -136q56 -62 157 -62q123 0 193 91h159q-51 -103 -144 -161t-219 -58q-155 0 -250 101q-90 96 -90 245q0 188 122 310q115 115 300 115q119 0 202.5 -56.5t114.5 -168.5z" />
<glyph unicode="&#x405;" horiz-adv-x="520" d="M12 212h137q-2 -8 -2 -23q0 -31 20 -54q23 -25 63 -25q49 0 77 29q24 25 24 60q0 52 -51 98q-13 12 -57 44q-64 48 -90 87.5t-26 97.5q0 107 72 172q63 55 163 55q96 0 143 -57q39 -47 39 -122q0 -20 -3 -40h-137q3 10 3 20q0 29 -15 49q-16 22 -50 22q-31 0 -52 -17 q-26 -21 -26 -63q0 -34 21.5 -57.5t83.5 -66.5q26 -18 42.5 -32t38.5 -39.5t33 -59.5t11 -75q0 -98 -63 -163q-70 -70 -191 -70q-96 0 -151 53q-59 57 -59 144q0 11 2 33z" />
<glyph unicode="&#x406;" horiz-adv-x="280" d="M21 0l144 740h137l-144 -740h-137z" />
<glyph unicode="&#x407;" horiz-adv-x="340" d="M52 0l144 740h137l-144 -740h-137zM138 920h137l-25 -126h-137zM324 920h137l-25 -126h-137z" />
<glyph unicode="&#x408;" horiz-adv-x="480" d="M502 740l-109 -562q-38 -196 -231 -196q-86 0 -130 51.5t-44 128.5q0 10 2 28h137q-2 -10 -2 -16q0 -28 14 -46t40 -18q64 0 78 71l108 559h137z" />
<glyph unicode="&#x409;" horiz-adv-x="1000" d="M722 740l-56 -285h103q109 0 161 -58q50 -54 50 -150q0 -125 -87 -192q-71 -55 -184 -55h-268l118 606h-2l-416 -606h-174l536 740h219zM642 327l-39 -199h122q49 0 79 25q39 31 39 84q0 41 -20 63q-25 27 -75 27h-106z" />
<glyph unicode="&#x40a;" horiz-adv-x="980" d="M165 740h137l-56 -285h263l56 285h137l-56 -285h103q109 0 161 -58q50 -55 50 -146q0 -128 -87 -196q-71 -55 -184 -55h-268l64 327h-263l-64 -327h-137zM622 327l-39 -199h122q49 0 79 25q39 32 39 90q0 35 -20 57q-25 27 -75 27h-106z" />
<glyph unicode="&#x40b;" horiz-adv-x="720" d="M95 0l119 612h-137l25 128h491l-25 -128h-217l-30 -153h135q113 0 161 -46q47 -44 47 -129q0 -26 -7 -63l-43 -221h-137l43 223q4 22 4 32q0 37 -22 57q-22 19 -70 19h-136l-64 -331h-137z" />
<glyph unicode="&#x40c;" horiz-adv-x="620" d="M21 0l144 740h137l-64 -325l289 325h164l-341 -370l202 -370h-160l-171 324l-63 -324h-137zM311 879l263 101l37 -110l-261 -90z" />
<glyph unicode="&#x40e;" horiz-adv-x="700" d="M785 740l-469 -740h-160l126 192l-179 548h160l122 -404l240 404h160zM278 920h115q1 -20 13.5 -35t41.5 -15q62 0 75 50h115q-15 -64 -71.5 -102t-131.5 -38q-80 0 -119 42.5t-38 97.5z" />
<glyph unicode="&#x40f;" horiz-adv-x="680" d="M165 740h137l-119 -612h263l119 612h137l-144 -740h-200l-36 -185h-137l36 185h-200z" />
<glyph unicode="&#x410;" horiz-adv-x="740" d="M-43 0l432 740h147l147 -740h-147l-36 196h-280l-107 -196h-156zM287 324h194l-48 264z" />
<glyph unicode="&#x411;" horiz-adv-x="600" d="M165 740h431l-25 -128h-294l-31 -159h102q111 0 167 -59q52 -54 52 -145q0 -126 -92 -195q-73 -54 -179 -54h-275zM221 325l-38 -197h129q47 0 79 25q39 31 39 85q0 37 -21 60q-26 27 -75 27h-113z" />
<glyph unicode="&#x412;" horiz-adv-x="580" d="M21 0l144 740h201q97 0 146 -43q50 -43 50 -119q0 -65 -33 -113t-92 -69q99 -31 99 -149q0 -119 -86 -190q-68 -57 -177 -57h-252zM183 128h102q45 0 77 27q37 32 37 86q0 36 -19 57q-23 26 -69 26h-90zM246 452h77q46 0 72 22q30 25 30 68q0 34 -20 52q-19 18 -62 18 h-66z" />
<glyph unicode="&#x413;" horiz-adv-x="440" d="M21 0l144 740h365l-25 -128h-228l-119 -612h-137z" />
<glyph unicode="&#x414;" horiz-adv-x="820" d="M578 740l141 -612h70l-52 -268h-137l27 140h-534l-27 -140h-137l52 268h70l367 612h160zM211 128h364l-99 460z" />
<glyph unicode="&#x415;" horiz-adv-x="520" d="M21 0l144 740h392l-25 -128h-255l-34 -176h244l-25 -128h-244l-35 -180h255l-25 -128h-392z" />
<glyph unicode="&#x416;" horiz-adv-x="940" d="M351 0l63 324l-273 -324h-170l335 380l-191 360h156l161 -321l63 321h137l-63 -321l269 321h164l-324 -368l190 -372h-160l-157 324l-63 -324h-137z" />
<glyph unicode="&#x417;" d="M90 547q21 97 88 150q69 56 180 56q100 0 155 -55q49 -49 49 -123q0 -73 -47 -127q-36 -39 -89 -57q43 -14 68 -48q30 -41 30 -107q0 -115 -85 -186q-73 -61 -203 -61q-91 0 -146 46q-68 57 -68 152q0 27 2 41h137q-2 -12 -2 -18q0 -34 18 -58q26 -35 80 -35q58 0 93 30 q37 30 37 83q0 43 -21 66q-24 25 -71 25h-65l24 128h64q47 0 77 25q30 26 30 66t-24 63q-24 22 -69 22q-42 0 -70 -22q-27 -21 -35 -56h-137z" />
<glyph unicode="&#x418;" horiz-adv-x="740" d="M165 740h137l-99 -510l422 510h137l-144 -740h-137l99 510l-422 -510h-137z" />
<glyph unicode="&#x419;" horiz-adv-x="740" d="M165 740h137l-99 -510l422 510h137l-144 -740h-137l99 510l-422 -510h-137zM318 920h115q1 -20 13.5 -35t41.5 -15q62 0 75 50h115q-15 -64 -71.5 -102t-131.5 -38q-80 0 -119 42.5t-38 97.5z" />
<glyph unicode="&#x41a;" horiz-adv-x="620" d="M21 0l144 740h137l-64 -325l289 325h164l-341 -370l202 -370h-160l-171 324l-63 -324h-137z" />
<glyph unicode="&#x41b;" horiz-adv-x="720" d="M526 740l137 -740h-144l-95 588l-307 -588h-160l409 740h160z" />
<glyph unicode="&#x41c;" horiz-adv-x="920" d="M21 0l144 740h196l84 -566l301 566h196l-144 -740h-137l108 554l-295 -554h-129l-79 554l-108 -554h-137z" />
<glyph unicode="&#x41d;" horiz-adv-x="680" d="M21 0l144 740h137l-58 -297h263l58 297h137l-144 -740h-137l61 315h-263l-61 -315h-137z" />
<glyph unicode="&#x41e;" horiz-adv-x="840" d="M482 753q159 0 254 -101q90 -95 90 -245q0 -184 -124 -310q-115 -115 -302 -115q-159 0 -254 101q-90 95 -90 245q0 184 124 310q115 115 302 115zM411 110q135 0 211 91q67 79 67 202q0 99 -57 160q-57 62 -161 62q-135 0 -211 -91q-67 -79 -67 -202q0 -99 57 -160 q57 -62 161 -62z" />
<glyph unicode="&#x41f;" horiz-adv-x="680" d="M21 0l144 740h537l-144 -740h-137l119 612h-263l-119 -612h-137z" />
<glyph unicode="&#x420;" d="M21 0l144 740h217q108 0 161 -55q50 -52 50 -146q0 -128 -90 -202q-70 -57 -180 -57h-111l-54 -280h-137zM277 612l-39 -204h102q48 0 79 26q37 32 37 87q0 42 -21 65q-24 26 -70 26h-88z" />
<glyph unicode="&#x421;" horiz-adv-x="780" d="M795 528h-156q-39 97 -173 97t-208 -91q-65 -78 -65 -202q0 -100 57 -160q58 -62 153 -62q127 0 197 91h159q-51 -103 -144 -161t-219 -58q-155 0 -250 101q-90 97 -90 244q0 187 122 311q115 115 300 115q119 0 202.5 -56.5t114.5 -168.5z" />
<glyph unicode="&#x422;" horiz-adv-x="420" d="M92 0l119 612h-137l25 128h411l-25 -128h-137l-119 -612h-137z" />
<glyph unicode="&#x423;" horiz-adv-x="700" d="M785 740l-469 -740h-160l126 192l-179 548h160l122 -404l240 404h160z" />
<glyph unicode="&#x424;" horiz-adv-x="860" d="M301 -37l20 104q-117 6 -192 84q-73 77 -73 210q0 207 165 297q92 51 224 49l19 93h137l-19 -93q117 -6 192 -84q73 -77 73 -210q0 -207 -165 -297q-92 -51 -224 -49l-20 -104h-137zM346 195l74 384q-87 2 -143 -35q-84 -57 -84 -182q0 -78 43 -123q44 -46 110 -44z M557 579l-74 -384q87 -2 143 35q84 57 84 182q0 78 -43 123q-44 46 -110 44z" />
<glyph unicode="&#x425;" horiz-adv-x="680" d="M-45 0l327 370l-183 370h156l127 -267l224 267h164l-328 -370l184 -370h-156l-128 266l-223 -266h-164z" />
<glyph unicode="&#x426;" horiz-adv-x="700" d="M702 740l-119 -612h84l-52 -268h-137l27 140h-484l144 740h137l-119 -612h263l119 612h137z" />
<glyph unicode="&#x427;" horiz-adv-x="620" d="M642 740l-144 -740h-137l55 285h-124q-56 0 -98 15t-62 34t-32 45.5t-14 41.5t-2 30q0 32 8 72l42 217h137l-43 -222q-5 -27 -5 -44q0 -64 94 -64h124l64 330h137z" />
<glyph unicode="&#x428;" horiz-adv-x="1000" d="M165 740h137l-119 -612h223l119 612h137l-119 -612h223l119 612h137l-144 -740h-857z" />
<glyph unicode="&#x429;" horiz-adv-x="1020" d="M165 740h137l-119 -612h223l119 612h137l-119 -612h223l119 612h137l-119 -612h84l-52 -268h-137l27 140h-804z" />
<glyph unicode="&#x42a;" horiz-adv-x="680" d="M105 740h297l-56 -285h97q113 0 167 -58q50 -54 50 -150q0 -125 -87 -192q-71 -55 -184 -55h-268l119 612h-160zM322 327l-39 -199h122q49 0 79 25q39 32 39 90q0 35 -21 57q-26 27 -76 27h-104z" />
<glyph unicode="&#x42b;" horiz-adv-x="840" d="M165 740h137l-56 -285h103q109 0 161 -58q50 -56 50 -154q0 -122 -87 -188q-71 -55 -184 -55h-268zM581 0l144 740h137l-144 -740h-137zM222 327l-39 -199h122q49 0 79 25q39 33 39 82q0 42 -20 65q-25 27 -75 27h-106z" />
<glyph unicode="&#x42c;" horiz-adv-x="580" d="M165 740h137l-56 -285h103q109 0 161 -58q50 -55 50 -146q0 -128 -87 -196q-71 -55 -184 -55h-268zM222 327l-39 -199h122q49 0 79 25q39 32 39 88q0 35 -20 59q-25 27 -75 27h-106z" />
<glyph unicode="&#x42d;" horiz-adv-x="780" d="M27 201h156q40 -91 174 -91q131 0 207 91q40 48 52 107h-344l25 128h329q-6 75 -54 127q-57 62 -161 62q-123 0 -189 -97h-159q28 61 69.5 105.5t80 66.5t84 35t71.5 15.5t54 2.5q161 0 254 -101q90 -96 90 -245q0 -188 -122 -310q-114 -115 -304 -115q-116 0 -199 55 t-114 164z" />
<glyph unicode="&#x42e;" horiz-adv-x="1120" d="M244 443h106q31 114 110 195q114 115 302 115q159 0 254 -101q90 -95 90 -245q0 -184 -124 -310q-114 -115 -302 -115q-161 0 -254 101q-89 96 -90 232h-117l-61 -315h-137l144 740h137zM691 110q135 0 211 91q67 79 67 202q0 99 -57 160q-57 62 -161 62q-135 0 -211 -91 q-67 -79 -67 -202q0 -99 57 -160q57 -62 161 -62z" />
<glyph unicode="&#x42f;" horiz-adv-x="600" d="M622 740l-144 -740h-137l57 295h-2l-241 -295h-170l248 282q-61 10 -102 53q-52 54 -52 148q0 55 23 108t67 89q44 37 93.5 48.5t115.5 11.5h244zM460 612h-109q-55 0 -91 -28q-43 -35 -43 -96q0 -43 25 -70q25 -26 77 -26h98z" />
<glyph unicode="&#x430;" horiz-adv-x="660" d="M665 554l-108 -554h-122l6 33h-2q-50 -51 -150 -51q-102 0 -173 62q-86 76 -86 207q0 150 97 241q86 80 212 80q133 0 189 -86h2l13 68h122zM339 454q-84 0 -130 -58.5t-46 -139.5q0 -71 38.5 -113.5t104.5 -42.5q78 0 128 53.5t50 140.5q0 74 -39 117t-106 43z" />
<glyph unicode="&#x431;" horiz-adv-x="640" d="M684 740l-31 -118l-252 -5q-101 -2 -172 -58q-55 -43 -80 -115h2q84 102 215 102q116 0 183 -68q69 -69 69 -183q0 -141 -93 -231q-84 -82 -224 -82q-122 0 -194 73q-77 79 -77 221q0 112 41 219.5t126 170.5q90 67 230 69zM342 428q-79 0 -128 -51q-48 -50 -48 -134 q0 -59 34 -99q39 -44 107 -44q82 0 129 51q48 51 48 132q0 63 -34 101q-39 44 -108 44z" />
<glyph unicode="&#x432;" horiz-adv-x="500" d="M112 554h217q88 0 127 -39q33 -33 33 -90q0 -51 -36 -90q-30 -32 -74 -44q39 -10 60.5 -42t21.5 -75q0 -87 -70 -136q-54 -38 -144 -38h-243zM223 440l-18 -92h90q28 0 42 12q18 14 18 41q0 16 -11 27q-12 12 -37 12h-84zM182 234l-23 -120h96q28 0 48 13q29 19 29 56 q0 22 -14 36q-15 15 -48 15h-88z" />
<glyph unicode="&#x433;" horiz-adv-x="380" d="M112 554h314l-23 -118h-181l-85 -436h-133z" />
<glyph unicode="&#x434;" horiz-adv-x="680" d="M459 554l117 -436h66l-50 -258h-130l27 140h-398l-27 -140h-130l50 258h66l259 436h150zM200 118h236l-74 282z" />
<glyph unicode="&#x435;" horiz-adv-x="640" d="M609 218h-439q3 -46 40 -81q40 -37 104 -37q43 0 79 19q29 16 46 41h150q-33 -73 -97 -121q-79 -57 -199 -57q-117 0 -189 74q-74 79 -74 190q0 149 96 242q87 84 227 84q127 0 196 -73t69 -197q0 -42 -9 -84zM182 336h303q-6 53 -41 85q-36 33 -95 33q-68 0 -113 -36 q-39 -31 -54 -82z" />
<glyph unicode="&#x436;" horiz-adv-x="840" d="M308 0l52 266l-234 -266h-162l273 294l-155 260h150l134 -254l50 254h133l-50 -254l217 254h158l-248 -272l150 -282h-154l-129 266l-52 -266h-133z" />
<glyph unicode="&#x437;" horiz-adv-x="460" d="M183 390h-133q8 81 65 130q59 52 158 52q87 0 134 -45q42 -40 42 -106q0 -57 -32 -91t-75 -47q72 -25 72 -112q0 -91 -75 -146q-59 -43 -141 -43q-77 0 -126 36q-64 47 -64 138q0 11 2 31h133q-1 -6 -1 -19q0 -31 19 -49.5t48 -18.5q33 0 52 20q20 20 20 52q0 28 -16 42 q-13 12 -39 12h-34l22 110h36q32 0 49 13q22 18 22 46t-15 43q-16 16 -48 16q-29 0 -49 -15q-23 -17 -26 -49z" />
<glyph unicode="&#x438;" horiz-adv-x="620" d="M112 554h133l-68 -349l315 349h133l-108 -554h-133l68 349l-315 -349h-133z" />
<glyph unicode="&#x439;" horiz-adv-x="620" d="M112 554h133l-68 -349l315 349h133l-108 -554h-133l68 349l-315 -349h-133zM241 756h100q5 -46 60 -46t70 46h100q-14 -62 -61.5 -99t-113.5 -37q-65 0 -113 36t-42 100z" />
<glyph unicode="&#x43a;" horiz-adv-x="580" d="M4 0l108 554h133l-50 -254l248 254h158l-276 -272l180 -282h-158l-158 266l-52 -266h-133z" />
<glyph unicode="&#x43b;" horiz-adv-x="580" d="M409 554l117 -554h-136l-77 400l-209 -400h-150l305 554h150z" />
<glyph unicode="&#x43c;" horiz-adv-x="780" d="M112 554h193l70 -384l217 384h193l-108 -554h-133l77 397l-225 -397h-111l-71 397l-77 -397h-133z" />
<glyph unicode="&#x43d;" horiz-adv-x="580" d="M112 554h133l-40 -204h207l40 204h133l-108 -554h-133l45 232h-207l-45 -232h-133z" />
<glyph unicode="&#x43e;" horiz-adv-x="640" d="M347 572q126 0 198 -72q73 -73 73 -192q0 -147 -94 -241q-85 -85 -221 -85q-126 0 -199 72q-74 73 -74 194q0 147 94 239q86 85 223 85zM340 454q-78 0 -128 -55q-49 -54 -49 -143q0 -66 34 -108q38 -48 111 -48q78 0 128 55q49 54 49 143q0 66 -34 108q-38 48 -111 48z " />
<glyph unicode="&#x43f;" horiz-adv-x="580" d="M112 554h473l-108 -554h-133l85 436h-207l-85 -436h-133z" />
<glyph unicode="&#x440;" horiz-adv-x="660" d="M-32 -185l144 739h122l-6 -33h2q51 51 149 51q104 0 173 -62q86 -76 86 -207q0 -150 -97 -241q-86 -80 -216 -80q-121 0 -175 75h-2l-47 -242h-133zM359 454q-75 0 -125 -53.5t-50 -142.5q0 -72 39 -115t105 -43q77 0 127 53.5t50 139.5q0 74 -39.5 117.5t-106.5 43.5z " />
<glyph unicode="&#x441;" horiz-adv-x="640" d="M447 180h144q-29 -88 -103 -143t-189 -55q-123 0 -195 71q-74 73 -74 195q0 145 94 239q86 85 229 85q66 0 116.5 -19.5t79 -51.5t44 -64t21.5 -67h-146q-12 40 -45.5 62t-78.5 22q-82 0 -133 -56q-48 -54 -48 -140q0 -74 40 -118q38 -40 103 -40q105 0 141 80z" />
<glyph unicode="&#x442;" horiz-adv-x="420" d="M68 554h399l-23 -118h-133l-85 -436h-133l85 436h-133z" />
<glyph unicode="&#x443;" horiz-adv-x="580" d="M478 554h148l-457 -739h-148l148 237l-105 502h143l69 -355z" />
<glyph unicode="&#x444;" horiz-adv-x="820" d="M438 740h133l-33 -168q104 -7 171 -63q90 -74 90 -213q0 -89 -44 -158t-112 -107q-95 -53 -219 -49l-33 -167h-133l33 167q-104 7 -171 63q-42 35 -66 90t-24 119q0 92 44.5 161.5t111.5 107.5q95 53 219 49zM313 100l70 354q-77 3 -136 -35q-84 -56 -84 -166 q0 -67 43 -110q47 -42 107 -43zM516 454l-70 -354q77 -3 136 35q84 54 84 164q0 69 -43 112q-47 42 -107 43z" />
<glyph unicode="&#x445;" d="M-46 0l255 295l-132 259h150l77 -169l136 169h157l-235 -275l144 -279h-155l-85 189l-153 -189h-159z" />
<glyph unicode="&#x446;" horiz-adv-x="620" d="M112 554h133l-85 -436h208l85 436h133l-85 -436h84l-50 -258h-130l27 140h-428z" />
<glyph unicode="&#x447;" horiz-adv-x="520" d="M525 554l-108 -554h-133l37 190h-79q-86 0 -127 24q-62 35 -62 111q0 22 10 72l31 157h133l-31 -157q-5 -30 -5 -35q0 -31 17 -43q14 -11 57 -11h79l48 246h133z" />
<glyph unicode="&#x448;" horiz-adv-x="840" d="M112 554h133l-85 -436h167l85 436h133l-85 -436h167l85 436h133l-108 -554h-733z" />
<glyph unicode="&#x449;" horiz-adv-x="880" d="M112 554h133l-85 -436h167l85 436h133l-85 -436h167l85 436h133l-85 -436h84l-50 -258h-130l27 140h-687z" />
<glyph unicode="&#x44a;" horiz-adv-x="600" d="M40 436l23 118h262l-38 -194h99q85 0 131 -44q43 -41 43 -116q0 -88 -65 -146q-61 -54 -159 -54h-252l85 436h-129zM264 242l-24 -124h101q34 0 56 13q30 18 30 55q0 29 -18 43q-17 13 -48 13h-97z" />
<glyph unicode="&#x44b;" horiz-adv-x="740" d="M112 554h133l-38 -194h99q85 0 131 -44q43 -41 43 -116q0 -88 -65 -146q-61 -54 -159 -54h-252zM504 0l108 554h133l-108 -554h-133zM184 242l-24 -124h101q34 0 56 13q30 18 30 55q0 29 -18 43q-17 13 -48 13h-97z" />
<glyph unicode="&#x44c;" horiz-adv-x="520" d="M112 554h133l-38 -194h99q85 0 131 -44q43 -41 43 -116q0 -88 -65 -146q-61 -54 -159 -54h-252zM184 242l-24 -124h101q34 0 56 13q30 18 30 55q0 29 -18 43q-17 13 -48 13h-97z" />
<glyph unicode="&#x44d;" horiz-adv-x="640" d="M194 370h-144q28 88 97 140q79 62 203 62q123 0 194 -71q74 -73 74 -191q0 -151 -94 -243q-86 -85 -229 -85q-127 0 -196 70q-52 54 -65 128h146q9 -34 37 -54q34 -26 89 -26q74 0 122 48q31 31 43 70h-220l23 118h207q-7 41 -31 71q-38 47 -110 47q-52 0 -90 -23 q-36 -22 -56 -61z" />
<glyph unicode="&#x44e;" horiz-adv-x="880" d="M205 350h80q18 82 79 139q88 83 221 83q128 0 200 -72q73 -73 73 -192q0 -147 -94 -241q-85 -85 -221 -85q-127 0 -199 72q-70 72 -73 178h-89l-45 -232h-133l108 554h133zM546 100q81 0 130 55q49 54 49 143q0 66 -34 108q-38 48 -107 48q-83 0 -132 -55 q-49 -54 -49 -143q0 -66 34 -108q40 -48 109 -48z" />
<glyph unicode="&#x44f;" horiz-adv-x="540" d="M545 554l-108 -554h-133l42 220l-201 -220h-172l206 204q-47 4 -81 36q-42 40 -42 109q0 103 84 162q61 43 148 43h257zM362 297l27 139h-115q-35 0 -56 -17q-29 -23 -29 -62q0 -25 17 -42q19 -18 61 -18h95z" />
<glyph unicode="&#x451;" horiz-adv-x="640" d="M609 218h-439q3 -46 40 -81q40 -37 104 -37q43 0 79 19q29 16 46 41h150q-33 -73 -97 -121q-79 -57 -199 -57q-117 0 -189 74q-74 79 -74 190q0 149 96 242q87 84 227 84q127 0 196 -73t69 -197q0 -42 -9 -84zM182 336h303q-6 53 -41 85q-36 33 -95 33q-68 0 -113 -36 q-39 -31 -54 -82zM228 740h133l-23 -120h-133zM438 740h133l-23 -120h-133z" />
<glyph unicode="&#x452;" horiz-adv-x="600" d="M4 0l117 605h-100l21 104h100l6 31h133l-6 -31h267l-21 -104h-267l-28 -146q57 51 149 51q81 0 127 -45q50 -50 50 -144q0 -35 -8 -77l-50 -256q-21 -106 -107 -149q-62 -31 -164 -24l23 118q45 -2 77 16q33 18 42 59l48 244q5 22 5 54q0 12 -2.5 23.5t-10.5 27 t-27.5 25.5t-47.5 10q-58 0 -97 -42q-35 -37 -48 -108l-48 -242h-133z" />
<glyph unicode="&#x453;" horiz-adv-x="380" d="M112 554h314l-23 -118h-181l-85 -436h-133zM173 705l251 133l49 -104l-252 -121z" />
<glyph unicode="&#x454;" horiz-adv-x="640" d="M451 180h144q-29 -89 -104 -143.5t-192 -54.5q-123 0 -195 71q-74 73 -74 195q0 145 94 239q86 85 229 85q66 0 116.5 -19.5t79 -51.5t44 -64t21.5 -67h-146q-13 39 -47 61.5t-81 22.5q-80 0 -128 -54q-25 -27 -35 -64h239l-23 -118h-226q4 -41 35 -75q41 -43 110 -43 q100 0 139 80z" />
<glyph unicode="&#x455;" horiz-adv-x="440" d="M7 174h133q-1 -4 -1 -12q0 -26 15.5 -44t45.5 -18q29 0 45 17.5t16 42.5q0 32 -35 57q-5 4 -44 27q-48 28 -75 61.5t-27 91.5q0 73 47 122q51 53 144 53q78 0 119 -41q40 -40 40 -114q0 -10 -1 -15h-133q1 4 1 13q0 17 -10 28t-29 11q-21 0 -33 -12.5t-12 -32.5 q0 -19 10 -34t21.5 -23t35.5 -21q53 -28 83.5 -64t30.5 -99q0 -88 -58 -138q-54 -48 -147 -48q-89 0 -137 44q-46 42 -46 121q0 18 1 27z" />
<glyph unicode="&#x456;" horiz-adv-x="240" d="M4 0l108 554h133l-108 -554h-133zM124 618l24 122h133l-24 -122h-133z" />
<glyph unicode="&#x457;" horiz-adv-x="340" d="M54 0l108 554h133l-108 -554h-133zM113 740h133l-23 -120h-133zM283 740h133l-23 -120h-133z" />
<glyph unicode="&#x458;" horiz-adv-x="260" d="M265 554l-111 -566q-21 -106 -107 -149q-62 -31 -164 -24l23 118q51 -5 81 14q30 20 38 61l107 546h133zM144 618l24 122h133l-24 -122h-133z" />
<glyph unicode="&#x459;" horiz-adv-x="840" d="M565 554l-38 -194h99q85 0 131 -44q43 -41 43 -116q0 -88 -65 -146q-61 -54 -159 -54h-252l75 386h-2l-271 -386h-164l403 554h200zM504 242l-24 -124h101q34 0 56 13q30 18 30 55q0 29 -18 43q-17 13 -48 13h-97z" />
<glyph unicode="&#x45a;" horiz-adv-x="860" d="M112 554h133l-38 -194h207l38 194h133l-38 -194h99q85 0 131 -44q43 -41 43 -116q0 -88 -65 -146q-61 -54 -159 -54h-252l47 242h-207l-47 -242h-133zM524 242l-24 -124h101q34 0 56 13q30 18 30 55q0 29 -18 43q-17 13 -48 13h-97z" />
<glyph unicode="&#x45b;" horiz-adv-x="600" d="M4 0l117 605h-100l21 104h100l6 31h133l-6 -31h267l-21 -104h-267l-28 -146q57 51 149 51q81 0 127 -45q50 -50 50 -144q0 -35 -8 -77l-48 -244h-133l50 252q5 27 5 46q0 94 -84 94q-62 0 -101 -42q-35 -37 -48 -108l-48 -242h-133z" />
<glyph unicode="&#x45c;" horiz-adv-x="580" d="M4 0l108 554h133l-50 -254l248 254h158l-276 -272l180 -282h-158l-158 266l-52 -266h-133zM273 705l251 133l49 -104l-252 -121z" />
<glyph unicode="&#x45e;" horiz-adv-x="580" d="M478 554h148l-457 -739h-148l148 237l-105 502h143l69 -355zM201 756h100q5 -46 60 -46t70 46h100q-14 -62 -61.5 -99t-113.5 -37q-65 0 -113 36t-42 100z" />
<glyph unicode="&#x45f;" horiz-adv-x="579" d="M112 554h133l-85 -436h206l85 436h133l-108 -554h-171l-31 -160h-130l31 160h-171z" />
<glyph unicode="&#x490;" horiz-adv-x="460" d="M21 0l144 740h249l25 130h137l-50 -258h-249l-119 -612h-137z" />
<glyph unicode="&#x491;" horiz-adv-x="400" d="M112 554h201l22 116h133l-45 -234h-201l-85 -436h-133z" />
<glyph unicode="&#x2000;" horiz-adv-x="490" />
<glyph unicode="&#x2001;" horiz-adv-x="980" />
<glyph unicode="&#x2002;" horiz-adv-x="490" />
<glyph unicode="&#x2003;" horiz-adv-x="980" />
<glyph unicode="&#x2004;" horiz-adv-x="326" />
<glyph unicode="&#x2005;" horiz-adv-x="245" />
<glyph unicode="&#x2006;" horiz-adv-x="163" />
<glyph unicode="&#x2007;" horiz-adv-x="163" />
<glyph unicode="&#x2008;" horiz-adv-x="122" />
<glyph unicode="&#x2009;" horiz-adv-x="196" />
<glyph unicode="&#x200a;" horiz-adv-x="54" />
<glyph unicode="&#x2010;" horiz-adv-x="420" d="M94 377h278l-23 -118h-278z" />
<glyph unicode="&#x2011;" horiz-adv-x="420" d="M94 377h278l-23 -118h-278z" />
<glyph unicode="&#x2012;" horiz-adv-x="420" d="M94 377h278l-23 -118h-278z" />
<glyph unicode="&#x2013;" horiz-adv-x="500" d="M23 377h500l-23 -118h-500z" />
<glyph unicode="&#x2014;" horiz-adv-x="1000" d="M23 377h1000l-23 -118h-1000z" />
<glyph unicode="&#x2018;" horiz-adv-x="280" d="M275 613l-26 -133h-133l25 128q5 27 9 41t16 35t31 35q37 29 103 34l-13 -67q-25 0 -44.5 -15t-23.5 -41l-3 -17h59z" />
<glyph unicode="&#x2019;" horiz-adv-x="280" d="M141 607l26 133h133l-25 -128q-5 -27 -9 -41t-16 -35t-31 -35q-37 -29 -103 -34l13 67q25 0 44.5 15t23.5 41l3 17h-59z" />
<glyph unicode="&#x201a;" horiz-adv-x="280" d="M23 0l26 133h133l-25 -128q-5 -27 -9 -41t-16 -35t-31 -35q-37 -29 -103 -34l13 67q25 0 44.5 15t23.5 41l3 17h-59z" />
<glyph unicode="&#x201c;" horiz-adv-x="480" d="M479 613l-26 -133h-133l25 128q5 27 9 41t16 35t31 35q37 29 103 34l-13 -67q-25 0 -44.5 -15t-23.5 -41l-3 -17h59zM272 613l-26 -133h-133l25 128q5 27 9 41t16 35t31 35q37 29 103 34l-13 -67q-25 0 -44.5 -15t-23.5 -41l-3 -17h59z" />
<glyph unicode="&#x201d;" horiz-adv-x="480" d="M138 607l26 133h133l-25 -128q-5 -27 -9 -41t-16 -35t-31 -35q-37 -29 -103 -34l13 67q25 0 44.5 15t23.5 41l3 17h-59zM345 607l26 133h133l-25 -128q-5 -27 -9 -41t-16 -35t-31 -35q-37 -29 -103 -34l13 67q25 0 44.5 15t23.5 41l3 17h-59z" />
<glyph unicode="&#x201e;" horiz-adv-x="480" d="M20 0l26 133h133l-25 -128q-5 -27 -9 -41t-16 -35t-31 -35q-37 -29 -103 -34l13 67q25 0 44.5 15t23.5 41l3 17h-59zM227 0l26 133h133l-25 -128q-5 -27 -9 -41t-16 -35t-31 -35q-37 -29 -103 -34l13 67q25 0 44.5 15t23.5 41l3 17h-59z" />
<glyph unicode="&#x2020;" d="M437 740l-37 -186h162l-22 -118h-162l-110 -564h-133l110 564h-162l22 118h162l37 186h133z" />
<glyph unicode="&#x2021;" d="M429 740l-29 -148h162l-23 -118h-162l-19 -97h162l-23 -118h-162l-75 -387h-133l75 387h-162l23 118h162l19 97h-162l23 118h162l29 148h133z" />
<glyph unicode="&#x2022;" horiz-adv-x="600" d="M120 318q0 82 59 141t141 59t141 -59t59 -141t-59 -141t-141 -59t-141 59t-59 141z" />
<glyph unicode="&#x2026;" horiz-adv-x="1000" d="M50 0l26 133h133l-26 -133h-133zM383 0l26 133h133l-26 -133h-133zM716 0l26 133h133l-26 -133h-133z" />
<glyph unicode="&#x202f;" horiz-adv-x="196" />
<glyph unicode="&#x2030;" horiz-adv-x="1280" d="M177 0l450 740h102l-450 -740h-102zM275 753q71 0 116 -45q45 -44 45 -111q0 -93 -55 -148q-54 -56 -144 -56q-71 0 -116 45q-45 44 -45 111q0 93 55 148q54 56 144 56zM251 499q33 0 54 23t21 58q0 31 -18 49t-47 18q-25 0 -44.5 -14t-26.5 -39q-4 -12 -4 -28 q0 -31 18 -49t47 -18zM669 342q71 0 116 -45q45 -44 45 -111q0 -93 -55 -148q-54 -56 -144 -56q-71 0 -116 45q-45 44 -45 111q0 93 55 148q54 56 144 56zM645 88q33 0 54 23t21 58q0 31 -18 49t-47 18q-25 0 -44.5 -14t-26.5 -39q-4 -12 -4 -28q0 -31 18 -49t47 -18z M1089 342q71 0 116 -45q45 -44 45 -111q0 -93 -55 -148q-54 -56 -144 -56q-71 0 -116 45q-45 44 -45 111q0 93 55 148q54 56 144 56zM1065 88q33 0 54 23t21 58q0 31 -18 49t-47 18q-25 0 -44.5 -14t-26.5 -39q-4 -12 -4 -28q0 -31 18 -49t47 -18z" />
<glyph unicode="&#x2039;" horiz-adv-x="240" d="M151 136l-113 131l20 101l164 130l-24 -123l-78 -57l55 -59z" />
<glyph unicode="&#x203a;" horiz-adv-x="240" d="M49 136l24 123l80 59l-57 57l24 123l114 -130l-20 -101z" />
<glyph unicode="&#x205f;" horiz-adv-x="245" />
<glyph unicode="&#x20ac;" d="M605 714l-26 -134q-38 48 -128 48q-126 0 -173 -130h252l-51 -99h-232q-3 -9 -6 -28q-4 -16 -6 -34h211l-51 -98h-166q-5 -131 122 -131q88 0 145 47l-26 -136q-55 -36 -163 -36q-224 0 -212 256h-81l52 98h39q2 22 5 33q3 19 7 29h-71l51 99h47q92 256 313 256 q51 0 90.5 -12.5t57.5 -27.5z" />
<glyph unicode="&#x2122;" horiz-adv-x="1000" d="M1023 740l-79 -404h-88l63 326l-182 -326h-52l-56 326l-63 -326h-88l79 404h142l44 -251l138 251h142zM508 740l-16 -78h-123l-63 -326h-97l63 326h-123l16 78h343z" />
<glyph unicode="&#x25fc;" horiz-adv-x="555" d="M0 555h555v-555h-555v555z" />
</font>
</defs>
</svg>
